{
  "accessors": [
    {
      "bufferView": 2,
      "componentType": 5126,
      "count": 102,
      "max": [
        0.21875,
        0.15625,
        0.1875
      ],
      "min": [
        -0.21875,
        0,
        -0.125
      ],
      "type": "VEC3"
    },
    {
      "bufferView": 2,
      "byteOffset": 1224,
      "componentType": 5126,
      "count": 102,
      "max": [
        0.95257937908172607,
        0.85714280605316162,
        0.89442723989486694
      ],
      "min": [
        -0.95257937908172607,
        -0.7071068286895752,
        -0.88058745861053467
      ],
      "type": "VEC3"
    },
    {
      "bufferView": 1,
      "componentType": 5126,
      "count": 102,
      "max": [
        0.34375,
        1
      ],
      "min": [
        -0,
        0.8125
      ],
      "type": "VEC2"
    },
    {
      "bufferView": 0,
      "componentType": 5125,
      "count": 150,
      "max": [
        101
      ],
      "min": [
        0
      ],
      "type": "SCALAR"
    },
    {
      "bufferView": 2,
      "byteOffset": 2448,
      "componentType": 5126,
      "count": 104,
      "max": [
        0.125,
        0.21875,
        0.109375
      ],
      "min": [
        -0.1875,
        0,
        -0.109375
      ],
      "type": "VEC3"
    },
    {
      "bufferView": 2,
      "byteOffset": 3696,
      "componentType": 5126,
      "count": 104,
      "max": [
        0.89442718029022217,
        1,
        1
      ],
      "min": [
        -0.89442718029022217,
        -0.94868338108062744,
        -1
      ],
      "type": "VEC3"
    },
    {
      "bufferView": 1,
      "byteOffset": 816,
      "componentType": 5126,
      "count": 104,
      "max": [
        0.5,
        1
      ],
      "min": [
        0.125,
        0.8125
      ],
      "type": "VEC2"
    },
    {
      "bufferView": 0,
      "byteOffset": 600,
      "componentType": 5125,
      "count": 156,
      "max": [
        103
      ],
      "min": [
        0
      ],
      "type": "SCALAR"
    },
    {
      "bufferView": 2,
      "byteOffset": 4944,
      "componentType": 5126,
      "count": 8,
      "max": [
        0.09375,
        0.1875,
        -0
      ],
      "min": [
        -0.09375,
        0,
        -0
      ],
      "type": "VEC3"
    },
    {
      "bufferView": 2,
      "byteOffset": 5040,
      "componentType": 5126,
      "count": 8,
      "max": [
        0,
        0,
        1
      ],
      "min": [
        0,
        0,
        -1
      ],
      "type": "VEC3"
    },
    {
      "bufferView": 1,
      "byteOffset": 1648,
      "componentType": 5126,
      "count": 8,
      "max": [
        0.28125,
        0.9375
      ],
      "min": [
        0.1875,
        0.84375
      ],
      "type": "VEC2"
    },
    {
      "bufferView": 0,
      "byteOffset": 1224,
      "componentType": 5125,
      "count": 12,
      "max": [
        7
      ],
      "min": [
        0
      ],
      "type": "SCALAR"
    },
    {
      "bufferView": 2,
      "byteOffset": 5136,
      "componentType": 5126,
      "count": 4,
      "max": [
        0.4375,
        0,
        0.4375
      ],
      "min": [
        -0.4375,
        0,
        -0.4375
      ],
      "type": "VEC3"
    },
    {
      "bufferView": 2,
      "byteOffset": 5184,
      "componentType": 5126,
      "count": 4,
      "max": [
        0,
        1,
        -0
      ],
      "min": [
        0,
        1,
        -0
      ],
      "type": "VEC3"
    },
    {
      "bufferView": 1,
      "byteOffset": 1712,
      "componentType": 5126,
      "count": 4,
      "max": [
        1,
        1
      ],
      "min": [
        0.5625,
        0.5625
      ],
      "type": "VEC2"
    },
    {
      "bufferView": 0,
      "byteOffset": 1272,
      "componentType": 5125,
      "count": 6,
      "max": [
        3
      ],
      "min": [
        0
      ],
      "type": "SCALAR"
    },
    {
      "bufferView": 2,
      "byteOffset": 5232,
      "componentType": 5126,
      "count": 8,
      "max": [
        0.031514689326286316,
        0.25,
        -0.0057457834482192993
      ],
      "min": [
        -0.2497335821390152,
        0,
        -0.014400963671505451
      ],
      "type": "VEC3"
    },
    {
      "bufferView": 2,
      "byteOffset": 5328,
      "componentType": 5126,
      "count": 8,
      "max": [
        0.030759602785110474,
        0,
        0.99952685832977295
      ],
      "min": [
        -0.030759602785110474,
        0,
        -0.99952685832977295
      ],
      "type": "VEC3"
    },
    {
      "bufferView": 1,
      "byteOffset": 1744,
      "componentType": 5126,
      "count": 8,
      "max": [
        0.14062413573265076,
        0.8125
      ],
      "min": [
        0,
        0.68749988079071045
      ],
      "type": "VEC2"
    },
    {
      "bufferView": 0,
      "byteOffset": 1296,
      "componentType": 5125,
      "count": 12,
      "max": [
        7
      ],
      "min": [
        0
      ],
      "type": "SCALAR"
    },
    {
      "bufferView": 3,
      "componentType": 5126,
      "count": 41,
      "max": [
        10
      ],
      "min": [
        0.01666666753590107
      ],
      "type": "SCALAR"
    },
    {
      "bufferView": 5,
      "componentType": 5126,
      "count": 41,
      "max": [
        0,
        1,
        -0,
        1
      ],
      "min": [
        0,
        0,
        -0,
        -1.6292068494294654e-07
      ],
      "type": "VEC4"
    },
    {
      "bufferView": 3,
      "byteOffset": 164,
      "componentType": 5126,
      "count": 20,
      "max": [
        10
      ],
      "min": [
        0.01666666753590107
      ],
      "type": "SCALAR"
    },
    {
      "bufferView": 4,
      "componentType": 5126,
      "count": 20,
      "max": [
        -0.0625,
        0.1875,
        -0
      ],
      "min": [
        -0.0625,
        0.15625,
        -0
      ],
      "type": "VEC3"
    }
  ],
  "animations": [
    {
      "channels": [
        {
          "sampler": 0,
          "target": {
            "node": 8,
            "path": "rotation"
          }
        },
        {
          "sampler": 1,
          "target": {
            "node": 12,
            "path": "translation"
          }
        }
      ],
      "name": "Animation",
      "samplers": [
        {
          "input": 20,
          "interpolation": "LINEAR",
          "output": 21
        },
        {
          "input": 22,
          "interpolation": "LINEAR",
          "output": 23
        }
      ]
    }
  ],
  "asset": {
    "extras": {
      "author": "lampy (https://sketchfab.com/lampysprites)",
      "license": "CC-BY-4.0 (http://creativecommons.org/licenses/by/4.0/)",
      "source": "https://sketchfab.com/3d-models/coffee-and-croissant-9629dca013e04e4f8ef5d8adb45889d7",
      "title": "Coffee and Croissant"
    },
    "generator": "Sketchfab-9.99.1",
    "version": "2.0"
  },
  "bufferViews": [
    {
      "buffer": 0,
      "byteLength": 1344,
      "byteOffset": 0,
      "name": "floatBufferViews",
      "target": 34963
    },
    {
      "buffer": 0,
      "byteLength": 1808,
      "byteOffset": 1344,
      "byteStride": 8,
      "name": "floatBufferViews",
      "target": 34962
    },
    {
      "buffer": 0,
      "byteLength": 5424,
      "byteOffset": 3152,
      "byteStride": 12,
      "name": "floatBufferViews",
      "target": 34962
    },
    {
      "buffer": 0,
      "byteLength": 244,
      "byteOffset": 8576,
      "name": "floatBufferViews"
    },
    {
      "buffer": 0,
      "byteLength": 240,
      "byteOffset": 8820,
      "byteStride": 12,
      "name": "floatBufferViews"
    },
    {
      "buffer": 0,
      "byteLength": 656,
      "byteOffset": 9060,
      "byteStride": 16,
      "name": "floatBufferViews"
    }
  ],
  "buffers": [
    {
      "byteLength": 9716,
      "uri": "scene.bin"
    }
  ],
  "extensionsUsed": [
    "KHR_materials_unlit"
  ],
  "images": [
    {
      "uri": "textures/crois.aseprite_baseColor.png"
    },
    {
      "uri": "textures/crois.aseprite_emissive.png"
    }
  ],
  "materials": [
    {
      "alphaCutoff": 1,
      "alphaMode": "MASK",
      "doubleSided": false,
      "emissiveFactor": [
        1,
        1,
        1
      ],
      "emissiveTexture": {
        "index": 1,
        "texCoord": 0
      },
      "extensions": {
        "KHR_materials_unlit": {}
      },
      "name": "crois.aseprite",
      "pbrMetallicRoughness": {
        "baseColorFactor": [
          0,
          0,
          0,
          1
        ],
        "baseColorTexture": {
          "index": 0,
          "texCoord": 0
        },
        "metallicFactor": 0,
        "roughnessFactor": 1
      }
    }
  ],
  "meshes": [
    {
      "primitives": [
        {
          "attributes": {
            "NORMAL": 1,
            "POSITION": 0,
            "TEXCOORD_0": 2
          },
          "indices": 3,
          "material": 0,
          "mode": 4
        }
      ]
    },
    {
      "primitives": [
        {
          "attributes": {
            "NORMAL": 5,
            "POSITION": 4,
            "TEXCOORD_0": 6
          },
          "indices": 7,
          "material": 0,
          "mode": 4
        }
      ]
    },
    {
      "primitives": [
        {
          "attributes": {
            "NORMAL": 9,
            "POSITION": 8,
            "TEXCOORD_0": 10
          },
          "indices": 11,
          "material": 0,
          "mode": 4
        }
      ]
    },
    {
      "primitives": [
        {
          "attributes": {
            "NORMAL": 13,
            "POSITION": 12,
            "TEXCOORD_0": 14
          },
          "indices": 15,
          "material": 0,
          "mode": 4
        }
      ]
    },
    {
      "primitives": [
        {
          "attributes": {
            "NORMAL": 17,
            "POSITION": 16,
            "TEXCOORD_0": 18
          },
          "indices": 19,
          "material": 0,
          "mode": 4
        }
      ]
    }
  ],
  "nodes": [
    {
      "children": [
        1
      ],
      "name": "RootNode (gltf orientation matrix)",
      "rotation": [
        -0.70710678118654746,
        -0,
        -0,
        0.70710678118654757
      ]
    },
    {
      "children": [
        2
      ],
      "name": "RootNode (model correction matrix)"
    },
    {
      "children": [
        3
      ],
      "name": "root"
    },
    {
      "children": [
        4,
        6,
        8,
        10,
        12
      ],
      "matrix": [
        1,
        0,
        0,
        0,
        0,
        2.2204460492503131e-16,
        1,
        0,
        0,
        -1,
        2.2204460492503131e-16,
        0,
        0,
        0,
        0,
        1
      ],
      "name": "GLTF_SceneRootNode"
    },
    {
      "children": [
        5
      ],
      "matrix": [
        0.77358281636956405,
        0,
        0.63369521555534369,
        0,
        -0,
        1,
        0,
        0,
        -0.63369521555534369,
        -0,
        0.77358281636956405,
        0,
        -0.0625,
        0,
        0.0625,
        1
      ],
      "name": "Cro_0"
    },
    {
      "mesh": 0,
      "name": ""
    },
    {
      "children": [
        7
      ],
      "matrix": [
        -0.99619469178080799,
        -0,
        -0.087155814881973145,
        0,
        0,
        1,
        -0,
        0,
        0.087155814881973145,
        0,
        -0.99619469178080799,
        0,
        0.203125,
        0,
        0,
        1
      ],
      "name": "Mug_1"
    },
    {
      "mesh": 1,
      "name": ""
    },
    {
      "children": [
        9
      ],
      "name": "Fog_2",
      "translation": [
        0.20312501490116119,
        0.21875,
        0
      ]
    },
    {
      "mesh": 2,
      "name": ""
    },
    {
      "children": [
        11
      ],
      "matrix": [
        1,
        0,
        0,
        0,
        0,
        1,
        0,
        0,
        0,
        0,
        1,
        0,
        0.03125,
        0,
        0.0625,
        1
      ],
      "name": "Table_3"
    },
    {
      "mesh": 3,
      "name": ""
    },
    {
      "children": [
        13
      ],
      "name": "Popup_4",
      "translation": [
        -0.0625,
        0.1875,
        0
      ]
    },
    {
      "mesh": 4,
      "name": ""
    }
  ],
  "samplers": [
    {
      "magFilter": 9728,
      "minFilter": 9728,
      "wrapS": 10497,
      "wrapT": 10497
    }
  ],
  "scene": 0,
  "scenes": [
    {
      "name": "OSG_Scene",
      "nodes": [
        0
      ]
    }
  ],
  "textures": [
    {
      "sampler": 0,
      "source": 0
    },
    {
      "sampler": 0,
      "source": 1
    }
  ]
}

