{
  "accessors": [
    {
      "bufferView": 2,
      "componentType": 5126,
      "count": 27655,
      "max": [
        0.64864498376846313,
        0.51074898242950439,
        0.64790701866149902
      ],
      "min": [
        -0.64851999282836914,
        -0.60653901100158691,
        -1.1425240039825439
      ],
      "type": "VEC3"
    },
    {
      "bufferView": 2,
      "byteOffset": 331860,
      "componentType": 5126,
      "count": 27655,
      "max": [
        0.99990367889404297,
        0.99978965520858765,
        0.99983245134353638
      ],
      "min": [
        -0.99989736080169678,
        -1,
        -0.99999403953552246
      ],
      "type": "VEC3"
    },
    {
      "bufferView": 3,
      "componentType": 5126,
      "count": 27655,
      "max": [
        1,
        0.99987500905990601,
        0.99761712551116943,
        1
      ],
      "min": [
        -0.9361727237701416,
        -0.93867009878158569,
        -0.98757439851760864,
        1
      ],
      "type": "VEC4"
    },
    {
      "bufferView": 1,
      "componentType": 5126,
      "count": 27655,
      "max": [
        0.96934700012207031,
        0.99492102861404419
      ],
      "min": [
        0.022871000692248344,
        0.03292899951338768
      ],
      "type": "VEC2"
    },
    {
      "bufferView": 0,
      "componentType": 5125,
      "count": 161472,
      "max": [
        27654
      ],
      "min": [
        0
      ],
      "type": "SCALAR"
    }
  ],
  "asset": {
    "extras": {
      "author": "K-ART (https://sketchfab.com/kropaman)",
      "license": "CC-BY-4.0 (http://creativecommons.org/licenses/by/4.0/)",
      "source": "https://sketchfab.com/3d-models/little-fellow-1e6453bef5ab4669bc2297f243fb1773",
      "title": "Little fellow"
    },
    "generator": "Sketchfab-6.87.0",
    "version": "2.0"
  },
  "bufferViews": [
    {
      "buffer": 0,
      "byteLength": 645888,
      "byteOffset": 0,
      "name": "floatBufferViews",
      "target": 34963
    },
    {
      "buffer": 0,
      "byteLength": 221240,
      "byteOffset": 645888,
      "byteStride": 8,
      "name": "floatBufferViews",
      "target": 34962
    },
    {
      "buffer": 0,
      "byteLength": 663720,
      "byteOffset": 867128,
      "byteStride": 12,
      "name": "floatBufferViews",
      "target": 34962
    },
    {
      "buffer": 0,
      "byteLength": 442480,
      "byteOffset": 1530848,
      "byteStride": 16,
      "name": "floatBufferViews",
      "target": 34962
    }
  ],
  "buffers": [
    {
      "byteLength": 1973328,
      "uri": "scene.bin"
    }
  ],
  "images": [
    {
      "uri": "textures/Material.008_baseColor.png"
    },
    {
      "uri": "textures/Material.008_metallicRoughness.png"
    },
    {
      "uri": "textures/Material.008_normal.png"
    }
  ],
  "materials": [
    {
      "doubleSided": true,
      "name": "Material.008",
      "normalTexture": {
        "index": 2,
        "scale": 1,
        "texCoord": 0
      },
      "pbrMetallicRoughness": {
        "baseColorFactor": [
          1,
          1,
          1,
          1
        ],
        "baseColorTexture": {
          "index": 0,
          "texCoord": 0
        },
        "metallicFactor": 0,
        "metallicRoughnessTexture": {
          "index": 1,
          "texCoord": 0
        },
        "roughnessFactor": 1
      }
    }
  ],
  "meshes": [
    {
      "primitives": [
        {
          "attributes": {
            "NORMAL": 1,
            "POSITION": 0,
            "TANGENT": 2,
            "TEXCOORD_0": 3
          },
          "indices": 4,
          "material": 0,
          "mode": 4
        }
      ]
    }
  ],
  "nodes": [
    {
      "children": [
        1
      ],
      "name": "RootNode (gltf orientation matrix)",
      "rotation": [
        -0.70710678118654746,
        -0,
        -0,
        0.70710678118654757
      ]
    },
    {
      "children": [
        2
      ],
      "name": "RootNode (model correction matrix)"
    },
    {
      "children": [
        3
      ],
      "name": "loopa_SP.obj.cleaner.materialmerger.gles"
    },
    {
      "mesh": 0,
      "name": ""
    }
  ],
  "samplers": [
    {
      "magFilter": 9729,
      "minFilter": 9987,
      "wrapS": 10497,
      "wrapT": 10497
    }
  ],
  "scene": 0,
  "scenes": [
    {
      "name": "OSG_Scene",
      "nodes": [
        0
      ]
    }
  ],
  "textures": [
    {
      "sampler": 0,
      "source": 0
    },
    {
      "sampler": 0,
      "source": 1
    },
    {
      "sampler": 0,
      "source": 2
    }
  ]
}

